<svg width="72" height="72" viewBox="0 0 24 24" fill="none" xmlns="http://www.w3.org/2000/svg"><path d="M11.3817 2.5H5.36624L6.94927 4.71625V19.2802L5.04963 21.4964H18.6637L20.8799 18.3304H11.3817V2.5Z" fill="url(#paint0_linear)"></path><path d="M5.68278 6.42718C4.11596 8.0261 3.1499 10.2159 3.1499 12.6314C3.1499 15.0413 4.11146 17.2265 5.67182 18.8245L5.68278 18.8117V16.8332C4.88257 15.6297 4.41632 14.185 4.41632 12.6314C4.41632 11.0778 4.88257 9.63313 5.68278 8.42963V6.42718Z" fill="url(#paint1_linear)"></path><path d="M18.1873 17.0639C19.0848 15.8163 19.6134 14.2856 19.6134 12.6314C19.6134 8.6481 16.5484 5.38065 12.6481 5.05887V3.7887C17.2485 4.11339 20.8798 7.94834 20.8798 12.6314C20.8798 14.2461 20.4481 15.76 19.6938 17.0639H18.1873Z" fill="url(#paint2_linear)"></path><path d="M16.5367 17.0638C17.6564 15.9217 18.3468 14.3571 18.3468 12.6313C18.3468 9.34789 15.8478 6.64816 12.6479 6.33044V17.0638H16.5367Z" fill="url(#paint3_radial)"></path><defs><linearGradient id="paint0_linear" x1="1.0223" y1="21.4964" x2="18.5032" y2="0.519388" gradientUnits="userSpaceOnUse"><stop stop-color="#AF893D"></stop><stop offset="0.234375" stop-color="#D29D40"></stop><stop offset="0.53125" stop-color="#FFCC74"></stop><stop offset="0.822917" stop-color="#E8B55D"></stop></linearGradient><linearGradient id="paint1_linear" x1="1.0223" y1="21.4964" x2="18.5032" y2="0.519388" gradientUnits="userSpaceOnUse"><stop stop-color="#AF893D"></stop><stop offset="0.234375" stop-color="#D29D40"></stop><stop offset="0.53125" stop-color="#FFCC74"></stop><stop offset="0.822917" stop-color="#E8B55D"></stop></linearGradient><linearGradient id="paint2_linear" x1="1.0223" y1="21.4964" x2="18.5032" y2="0.519388" gradientUnits="userSpaceOnUse"><stop stop-color="#AF893D"></stop><stop offset="0.234375" stop-color="#D29D40"></stop><stop offset="0.53125" stop-color="#FFCC74"></stop><stop offset="0.822917" stop-color="#E8B55D"></stop></linearGradient><radialGradient id="paint3_radial" cx="0" cy="0" r="1" gradientUnits="userSpaceOnUse" gradientTransform="translate(8.84868 17.0638) rotate(-47.911) scale(13.2257)"><stop offset="0.119158" stop-color="#117D8D"></stop><stop offset="0.642479" stop-color="#2FEBEB"></stop><stop offset="0.86629" stop-color="#117D8D"></stop></radialGradient></defs></svg>