<?xml version="1.0" encoding="UTF-8" standalone="no"?>

<svg
   version="1.1"
   id="svg2"
   xml:space="preserve"
   width="890.22668"
   height="893.91998"
   viewBox="0 0 890.22668 893.91998"
   sodipodi:docname="overwatch-logo-seeklogo.com.eps"
   xmlns:inkscape="http://www.inkscape.org/namespaces/inkscape"
   xmlns:sodipodi="http://sodipodi.sourceforge.net/DTD/sodipodi-0.dtd"
   xmlns="http://www.w3.org/2000/svg"
   xmlns:svg="http://www.w3.org/2000/svg"><defs
     id="defs6" /><sodipodi:namedview
     id="namedview4"
     pagecolor="#ffffff"
     bordercolor="#666666"
     borderopacity="1.0"
     inkscape:pageshadow="2"
     inkscape:pageopacity="0.0"
     inkscape:pagecheckerboard="0" /><g
     id="g8"
     inkscape:groupmode="layer"
     inkscape:label="ink_ext_XXXXXX"
     transform="matrix(1.3333333,0,0,-1.3333333,0,893.92)"><g
       id="g10"
       transform="scale(0.1)"><path
         d="m 3338.33,6704.41 c -0.92,0 -1.85,0.02 -2.77,0.02 -783.16,0 -1503.47,-269.04 -2073.61,-719.7 l 573.56,-796.62 v -0.01 c 408.3,335.01 930.68,536.11 1500.05,536.11 0.92,0 1.85,-0.01 2.77,-0.01 0.93,0 1.85,0.01 2.78,0.01 569.37,0 1091.75,-201.1 1500.06,-536.11 v 0.01 l 573.55,796.62 c -570.15,450.66 -1290.45,719.7 -2073.61,719.7 -0.93,0 -1.85,-0.02 -2.78,-0.02"
         style="fill:#f68c1d;fill-opacity:1;fill-rule:nonzero;stroke:none"
         id="path12" /><path
         d="M 3338.33,980.219 C 2762.96,982.211 2235.99,1189.55 1826.81,1532.76 L 3182.55,2782.85 V 4846.71 L 2551.5,3418.86 1262.77,2224.39 c -180.23,333.96 -282.555,716.16 -282.555,1122.27 0,666.76 275.775,1269.09 719.455,1699.21 l -637.16,746.74 C 408.715,5181.81 0,4311.97 0,3346.66 0,1501.12 1493.85,4.5 3338.33,0 c 1844.49,4.5 3338.33,1501.12 3338.33,3346.66 0,965.31 -408.71,1835.15 -1062.51,2445.95 L 4977,5045.87 c 443.68,-430.12 719.45,-1032.45 719.45,-1699.21 0,-406.11 -102.33,-788.31 -282.55,-1122.27 L 4125.17,3418.86 3494.11,4846.71 V 2782.85 L 4849.85,1532.76 C 4440.68,1189.55 3913.7,982.211 3338.33,980.219"
         style="fill:#353e43;fill-opacity:1;fill-rule:nonzero;stroke:none"
         id="path14" /></g></g></svg>
