<svg xmlns="http://www.w3.org/2000/svg" width="72" height="72" viewBox="0 0 48 48" fill="none"><path fill-rule="evenodd" clip-rule="evenodd" d="M6.73194 27.9699C7.03277 28.2306 7.6545 28.6617 8.59712 29.2632V32.8722L20.6285 39.8729L20.6005 38.1353C24.234 39.7432 27.032 40.7123 28.9947 41.0428L29.0539 41.0526L23.9999 44L6.73194 33.9248V27.9699ZM23.9999 4L41.2679 13.9549V29.1429C42.9325 30.3258 44.3765 31.8396 45.5999 33.6842C45.2991 33.5439 44.6874 33.2932 43.7648 32.9323C44.908 35.4586 45.0584 39.188 40.967 40.1504C31.1783 42.453 18.3743 36.0902 13.5308 32.812C15.9919 33.8124 18.3385 34.6702 20.5704 35.3856L20.5705 33.8172C18.319 33.0547 14.2825 31.4457 9.92079 28.5113C5.96392 25.8492 2.86222 22.5026 2.3999 21.9248C3.06174 22.1053 3.6233 22.2155 4.08458 22.2556C2.5804 19.5188 4.17483 16.6917 6.73194 15.5489V13.9549L23.9999 4ZM23.9999 6.13534L8.59712 15.0376V22.2857C7.93528 21.6541 6.94252 20.0301 6.73194 18.9774C6.0701 19.4586 5.95964 20.5161 6.37093 21.5639C8.15876 26.1187 15.8062 31.088 20.5705 33.6907L20.5704 21.5338H13.1097L10.4623 15.6692H37.6879L35.0406 21.5338H27.5798L27.5799 37.2413C29.7886 37.687 31.8543 37.9549 33.7771 38.0451C42.1102 38.4361 42.6818 36.0301 41.2679 34.015L36.4545 36.812C35.1308 36.9323 33.9275 36.9123 32.8445 36.7519L39.4027 32.9925V15.0376L23.9999 6.13534Z" fill="url(#paint0_linear)"></path><defs><linearGradient id="paint0_linear" x1="4.45905" y1="45.1111" x2="34.4131" y2="-2.97045" gradientUnits="userSpaceOnUse"><stop offset="0.0490979" stop-color="#AF893D"></stop><stop offset="0.217824" stop-color="#D29D40"></stop><stop offset="0.639281" stop-color="#FFCC74"></stop><stop offset="0.814227" stop-color="#E8B55D"></stop></linearGradient></defs></svg>