<?xml version="1.0" encoding="utf-8"?>
<!-- Generator: Adobe Illustrator 26.3.1, SVG Export Plug-In . SVG Version: 6.00 Build 0)  -->
<svg version="1.1" id="Layer_1" xmlns="http://www.w3.org/2000/svg" xmlns:xlink="http://www.w3.org/1999/xlink" x="0px" y="0px"
	 viewBox="0 0 500 500" style="enable-background:new 0 0 500 500;" xml:space="preserve">
<style type="text/css">
	.st0{fill:#011D30;}
	.st1{fill:#F8B700;}
</style>
<path class="st0" d="M424.2,85.9c181.4,246.9-93.9,522.2-340.8,340.8c-3.5-2.6-6.5-5.6-9.1-9.1C-107,170.7,168.2-104.6,415.1,76.8
	C418.5,79.3,421.6,82.4,424.2,85.9z"/>
<path class="st1" d="M498.2,250.6c0-50.1-15.2-99-43.5-140.3V49.6c0-2-1.6-3.7-3.7-3.7h-60.7c-84.4-57.7-195.7-57.7-280.1,0H49.7
	c-0.9,0-1.9,0.4-2.6,1.1S46,48.7,46,49.6v59.7c-58.9,84.9-58.9,197.5,0,282.4v60c0,2,1.6,3.7,3.7,3.7h60.4
	c84.9,58,196.7,57.6,281.2-0.9H451c2,0,3.7-1.6,3.7-3.7l0,0v-60C482.9,349.6,498.2,300.7,498.2,250.6z M35.6,250.6
	c0-118.4,96-214.4,214.4-214.4s214.4,96,214.4,214.4S368.4,465,250,465l0,0l0,0C131.6,464.9,35.7,369,35.6,250.6z"/>
<path class="st1" d="M117.3,143.1h75.9c-1.8,8.5-2.6,17.2-2.6,25.9c3.3,34,25.5,126.8,25.5,126.8l35.9-145.5l36.8,142.6
	c0,0,21.9-125.2,21.9-133.6c-0.9-6.2-4.1-12.1-8.8-16.1h80.2c-10.7,9.9-18.4,22.5-22.6,36.4c-7.2,27.6-31.6,166.5-31.6,175.3
	c0.4,9.1,3.7,17.7,9.3,24.9h-74.6c1.8-6.6,2.6-13.4,2.4-20.3c0-12.7-11.8-73.3-11.8-73.3s-15.2,62.7-15.2,74.1
	c0,6.8,1.6,13.5,4.9,19.5h-77.6c0,0,14.8-10.4,14.2-20.3c-1.6-28.4-41.6-176.1-44.2-187.5C133.4,160.4,126.9,150,117.3,143.1z"/>
</svg>
