<svg id="Layer_1" data-name="Layer 1" xmlns="http://www.w3.org/2000/svg" viewBox="0 0 1133.93 161"><defs><style>.cls-1{fill:#0b6cfb;}.cls-2{fill:#fff;}.cls-3{fill:#fff;}</style></defs><title>Logo + Icon</title><path class="cls-1" d="M40,0H121a40,40,0,0,1,40,40v109A12.08,12.08,0,0,1,148.92,161H40A40,40,0,0,1,0,121V40A40,40,0,0,1,40,0Z"/><path class="cls-2" d="M469.69,512.51a2.1,2.1,0,0,1-.06.7l-5.18,20.72a2.36,2.36,0,0,1-2.27,1.79l-31.09.15H400a2.34,2.34,0,0,1-2.28-1.78l-5.19-20.81a2.47,2.47,0,0,1-.06-.71,4.94,4.94,0,1,1,4.63-.9l6.48,6.53a8.8,8.8,0,0,0,13.27-.9l10.66-14.12a5,5,0,1,1,7.07-.08h0l10.58,14.16a8.86,8.86,0,0,0,7,3.53,8.74,8.74,0,0,0,6.22-2.57L465,511.7a4.95,4.95,0,1,1,4.73.81ZM464,543.25a2.36,2.36,0,0,0-2.36-2.35H400.67a2.35,2.35,0,0,0-2.35,2.35v5.66a2.35,2.35,0,0,0,2.35,2.35h60.92a2.36,2.36,0,0,0,2.36-2.35Z" transform="translate(-350.5 -442.5)"/><path class="cls-1" d="M637.44,502.54l-19.6,9.94c-4.69-5.94-12-9.25-22.77-9.25-16.43,0-27.88,11.46-27.88,27A27.65,27.65,0,0,0,595.34,558c10.08,0,18.08-3.17,23-7.86v-9.11H589.82V523.66H638.4v34.78c-.69,1.38-15.46,20.7-42.92,20.7-31.05,0-51.07-23.33-51.07-48.58,0-26.09,21.4-48.58,50.93-48.58C613.42,482,628.05,490.12,637.44,502.54Z" transform="translate(-350.5 -442.5)"/><path class="cls-1" d="M720,562.85H674.7l-6.21,14.63h-24l40.16-93.85h25.26l40.3,93.85H726Zm-7.87-18.49L697.47,509.3l-14.91,35.06Z" transform="translate(-350.5 -442.5)"/><path class="cls-1" d="M881.16,577.48H858.39V529.59l-22.5,47.89H810.64l-22.5-47.89v47.89H765.51V483.63h25.12l32.7,68.87,32.58-68.87h25.25Z" transform="translate(-350.5 -442.5)"/><path class="cls-1" d="M973.91,483.63v21H924.63v16.15h41.13v19.6H924.63V556.5h49.28v21H902V483.63Z" transform="translate(-350.5 -442.5)"/><path class="cls-3" d="M1076.17,549.5c0,15.69-10,28-36.32,28H992.51V481.39h41.69c27.83,0,36.6,11,36.6,26.43,0,9.89-6.93,16.81-9,18.37A25,25,0,0,1,1076.17,549.5Zm-27.42-38.72c0-6.5-4.24-9.61-13.14-9.61h-19.93v20.07h19.93C1045.64,521.24,1048.75,518.27,1048.75,510.78Zm-11.59,28.12h-21.48v18.66h21.48q14,0,14-9.33C1051.15,541.17,1046.35,538.9,1037.16,538.9Z" transform="translate(-350.5 -442.5)"/><path class="cls-3" d="M1185.4,529.44a49.6,49.6,0,1,1-49.6-49.75A49.78,49.78,0,0,1,1185.4,529.44Zm-78,0a28.26,28.26,0,1,0,28.4-28.12A28.29,28.29,0,0,0,1107.4,529.44Z" transform="translate(-350.5 -442.5)"/><path class="cls-3" d="M1293.65,529.44a49.6,49.6,0,1,1-49.6-49.75A49.79,49.79,0,0,1,1293.65,529.44Zm-78,0a28.26,28.26,0,1,0,28.4-28.12A28.29,28.29,0,0,0,1215.65,529.44Z" transform="translate(-350.5 -442.5)"/><path class="cls-3" d="M1383.39,511.77h-23c0-4.8-5.65-11.3-15.54-11.3-6.92,0-15.4,3.11-15.4,8.62,0,4.66,6.36,6.5,19.92,10,15.12,4,36.46,9,36.46,30.24,0,18.37-16.11,29.82-38.58,29.82-30.1,0-42.67-20.35-42.67-35.33h23s1.84,15.26,20.91,15.26c10.32,0,14.14-4.38,14.14-8.48,0-6.07-8.06-8.19-17-10.31-14.41-3.39-39.71-8.76-39.71-30.1,0-17.52,17.24-30.53,39.14-30.53C1370.11,479.69,1383.39,496.79,1383.39,511.77Z" transform="translate(-350.5 -442.5)"/><path class="cls-3" d="M1484.43,502.87h-34.06v74.61h-23.45V502.87h-34.06V481.39h91.57Z" transform="translate(-350.5 -442.5)"/></svg>