<svg xmlns="http://www.w3.org/2000/svg" id="Layer_1" data-name="Layer 1" viewBox="0 0 503.68 161"><defs><style>.cls-1{fill:#0b6cfb;}.cls-2{fill:#fff;}.cls-3{fill:#fff;}</style></defs><title>Logo + Icon (1)</title><path class="cls-1" d="M40,0H121a40,40,0,0,1,40,40v109A12.08,12.08,0,0,1,148.92,161H40A40,40,0,0,1,0,121V40A40,40,0,0,1,40,0Z"/><path class="cls-2" d="M794.69,516.51a2.1,2.1,0,0,1-.06.7l-5.18,20.72a2.36,2.36,0,0,1-2.27,1.79l-31.09.15H725a2.34,2.34,0,0,1-2.28-1.78l-5.19-20.81a2.47,2.47,0,0,1-.06-.71,4.94,4.94,0,1,1,4.63-.9l6.48,6.53a8.8,8.8,0,0,0,13.27-.9l10.66-14.12a5,5,0,1,1,7.07-.08h0l10.58,14.16a8.86,8.86,0,0,0,7.05,3.53,8.74,8.74,0,0,0,6.22-2.57L790,515.7a4.95,4.95,0,1,1,4.73.81ZM789,547.25a2.36,2.36,0,0,0-2.36-2.35H725.67a2.35,2.35,0,0,0-2.35,2.35v5.66a2.35,2.35,0,0,0,2.35,2.35h60.92a2.36,2.36,0,0,0,2.36-2.35Z" transform="translate(-675.5 -446.5)"/><path class="cls-1" d="M930.21,469.91l-14.5,7.35c-3.47-4.39-8.88-6.84-16.84-6.84-12.16,0-20.63,8.47-20.63,20A20.46,20.46,0,0,0,899.07,511c7.45,0,13.38-2.34,17-5.82v-6.74H895V485.53h35.94v25.73c-.51,1-11.44,15.32-31.76,15.32-23,0-37.78-17.26-37.78-36,0-19.3,15.83-35.94,37.68-35.94A38.13,38.13,0,0,1,930.21,469.91Z" transform="translate(-675.5 -446.5)"/><path class="cls-1" d="M991.28,514.53H957.79l-4.6,10.82H935.43l29.71-69.43h18.69l29.81,69.43H995.77Zm-5.82-13.69-10.82-25.93-11,25.93Z" transform="translate(-675.5 -446.5)"/><path class="cls-1" d="M1110.55,525.35H1093.7V489.92l-16.64,35.43h-18.69l-16.64-35.43v35.43H1025V455.92h18.59l24.2,50.95,24.1-50.95h18.68Z" transform="translate(-675.5 -446.5)"/><path class="cls-1" d="M1179.18,455.92v15.52h-36.46v11.94h30.43v14.5h-30.43v11.95h36.46v15.52H1126V455.92Z" transform="translate(-675.5 -446.5)"/><path class="cls-3" d="M920.19,584.91c0,9.92-6.34,17.69-23,17.69H867.31V541.86h26.36c17.59,0,23.13,7,23.13,16.7a15.62,15.62,0,0,1-5.72,11.61A15.81,15.81,0,0,1,920.19,584.91Zm-17.32-24.47c0-4.11-2.68-6.08-8.31-6.08H882v12.69h12.6C900.9,567.05,902.87,565.17,902.87,560.44Zm-7.33,17.77H882V590h13.58q8.85,0,8.84-5.89C904.38,579.64,901.35,578.21,895.54,578.21Z" transform="translate(-675.5 -446.5)"/><path class="cls-3" d="M989.24,572.23a31.35,31.35,0,1,1-31.35-31.44A31.46,31.46,0,0,1,989.24,572.23Zm-49.3,0a17.87,17.87,0,1,0,17.95-17.78A17.88,17.88,0,0,0,939.94,572.23Z" transform="translate(-675.5 -446.5)"/><path class="cls-3" d="M1057.67,572.23a31.36,31.36,0,1,1-31.35-31.44A31.47,31.47,0,0,1,1057.67,572.23Zm-49.31,0a17.87,17.87,0,1,0,18-17.78A17.88,17.88,0,0,0,1008.36,572.23Z" transform="translate(-675.5 -446.5)"/><path class="cls-3" d="M1114.39,561.06h-14.56c0-3-3.57-7.14-9.83-7.14-4.37,0-9.73,2-9.73,5.45,0,2.94,4,4.11,12.59,6.34,9.56,2.5,23.05,5.71,23.05,19.11,0,11.62-10.18,18.85-24.39,18.85-19,0-27-12.86-27-22.33h14.56s1.16,9.65,13.22,9.65c6.52,0,8.93-2.77,8.93-5.36,0-3.84-5.09-5.18-10.72-6.52-9.11-2.15-25.1-5.54-25.1-19,0-11.08,10.9-19.29,24.74-19.29C1106,540.79,1114.39,551.59,1114.39,561.06Z" transform="translate(-675.5 -446.5)"/><path class="cls-3" d="M1178.26,555.44h-21.53V602.6H1141.9V555.44h-21.52V541.86h57.88Z" transform="translate(-675.5 -446.5)"/></svg>