<svg width="72" height="72" version="1.1" viewBox="0 0 400 400" xmlns="http://www.w3.org/2000/svg"><g fill-rule="evenodd"><path d="m195.6 11.955c-4.74 1.555-9.645 6.185-20.8 19.638-0.99 1.194-2.07 2.456-2.4 2.804-0.882 0.932-2.806 3.2-4.4 5.188-0.77 0.961-2.03 2.418-2.8 3.24-0.77 0.821-2.48 2.712-3.8 4.203-4.105 4.635-5.571 6.274-6.41 7.166-0.446 0.475-2.246 2.56-4 4.634-1.755 2.075-3.46 4.042-3.79 4.373-0.33 0.33-1.586 1.77-2.792 3.2-1.206 1.429-3.636 4.24-5.4 6.246-1.764 2.005-4.127 4.705-5.249 6-1.123 1.294-4.543 5.149-7.6 8.567-3.058 3.418-6.369 7.19-7.359 8.382s-2.07 2.453-2.4 2.801c-0.882 0.932-2.806 3.2-4.4 5.188-0.77 0.961-2.03 2.418-2.8 3.24-0.77 0.821-2.48 2.712-3.8 4.203-4.105 4.635-5.571 6.274-6.41 7.166-0.446 0.475-2.246 2.56-4 4.634-1.755 2.075-3.46 4.042-3.79 4.373-0.33 0.33-1.586 1.77-2.792 3.2-1.206 1.429-3.636 4.24-5.4 6.246-1.764 2.005-4.198 4.788-5.408 6.183s-3.742 4.254-5.628 6.353c-3.773 4.202-5.561 6.688-6.34 8.817-0.282 0.77-0.72 1.832-0.972 2.361-0.58 1.211-0.604 7.327-0.032 8.078 0.235 0.308 0.67 1.329 0.966 2.268 0.965 3.06 4.486 5.736 10.806 8.216 3.53 1.385 89.461 30.02 95.076 31.683 11.455 3.392 17.901 1.563 24.891-7.062 1.008-1.245 3.103-3.766 4.655-5.603 1.552-1.838 4.432-5.329 6.4-7.759 3.632-4.485 8.114-9.838 11.378-13.59 0.99-1.139 2.07-2.412 2.4-2.831s1.649-2.021 2.931-3.561 3.215-3.88 4.297-5.2c1.822-2.225 6.162-7.41 12.721-15.2 1.482-1.76 4.305-5.188 6.273-7.618 3.577-4.417 7.989-9.688 11.378-13.597 0.99-1.141 2.52-2.941 3.4-4 3.359-4.04 6.839-8.284 7.8-9.513 0.55-0.703 2.84-3.481 5.089-6.174 7.378-8.833 8.766-15.592 4.855-23.639-1.931-3.974-68.18-70.138-72.219-72.126-2.824-1.39-9.502-2.039-12.125-1.178m90.1 125.84c-1.155 0.325-2.865 0.972-3.8 1.438-2.475 1.233-69.782 68.634-71.269 71.37-3.721 6.844-2.902 14.589 2.022 19.13 2.002 1.846 66.862 34.381 70.347 35.287 5.68 1.478 12.211 0.61 16.467-2.189 3.806-2.502 50.973-50.081 52.322-52.778 3.315-6.63 2.524-14.264-2.058-19.85-2.727-3.324-46.817-47.306-49.491-49.369-3.994-3.081-9.964-4.329-14.54-3.039m-230.1 54.45c-3.734 1-7.2 4.115-7.2 6.47 0 0.4-0.225 0.953-0.5 1.228-0.667 0.668-0.652 7.468 0.018 8.138 0.265 0.265 0.495 0.851 0.511 1.302s0.371 1.36 0.788 2.02 1.062 1.74 1.432 2.4c0.752 1.341 5.861 7.866 18.972 24.232 2.541 3.172 5.511 6.898 6.6 8.28 2.087 2.649 3.278 4.123 7.179 8.887 1.32 1.611 3.471 4.296 4.781 5.966 2.778 3.541 9.088 11.432 12.159 15.205 1.178 1.447 3.878 4.839 6 7.539 3.989 5.074 4.993 6.325 9.06 11.287 1.32 1.611 4.11 5.106 6.2 7.767s4.61 5.841 5.6 7.067c1.597 1.978 10.021 12.506 15.132 18.912 2.095 2.626 3.9 4.841 6.283 7.713 0.888 1.07 3.225 4.015 5.193 6.545 1.969 2.53 4.456 5.68 5.529 7 1.658 2.04 6.07 7.555 14.995 18.742 2.128 2.668 3.954 4.909 6.285 7.713 0.89 1.07 2.837 3.516 4.327 5.437 5.416 6.98 8.936 9.108 15.061 9.108 6.791 0 9.67-1.865 16.395-10.621 0.77-1.003 2.035-2.578 2.812-3.501 4.381-5.206 10.454-12.782 11.588-14.456 0.817-1.205 3.707-4.755 8-9.827 0.99-1.17 2.062-2.502 2.382-2.961 0.319-0.459 1.673-2.184 3.008-3.834 1.334-1.65 2.742-3.45 3.128-4 0.756-1.077 2.299-2.997 6.082-7.568 4.279-5.172 8.467-10.433 9.4-11.81 0.817-1.205 3.707-4.755 8-9.827 0.99-1.17 2.065-2.502 2.39-2.961 0.324-0.459 1.718-2.244 3.096-3.967 5.486-6.859 6.895-13.977 4.013-20.267-1.425-3.109-4.784-5.758-10.499-8.281-4.434-1.956-12.839-5.504-17.2-7.26-2.2-0.885-5.53-2.262-7.4-3.059s-4.93-2.086-6.8-2.863-7.63-3.176-12.8-5.331c-11.046-4.605-17.461-7.277-32.4-13.495-6.05-2.518-14.69-6.115-19.2-7.993-4.51-1.879-11.44-4.764-15.4-6.411-3.96-1.648-8.19-3.409-9.4-3.915-1.21-0.505-5.44-2.263-9.4-3.907-8.7-3.611-19.237-8.007-30-12.516-48.371-20.265-47.75-20.055-54.2-18.327" fill="#04cce4"></path></g></svg>